<svg width="23" height="23" viewBox="0 0 23 23" fill="none" xmlns="http://www.w3.org/2000/svg">
<path d="M11.5 0C5.15901 0 0 5.15901 0 11.5C0 17.841 5.15901 23 11.5 23C17.841 23 23 17.841 23 11.5C23 5.15901 17.841 0 11.5 0ZM13.4167 18.6875C13.4167 18.9524 13.2024 19.1667 12.9375 19.1667H10.0625C9.79764 19.1667 9.58332 18.9524 9.58332 18.6875V11.5H9.10414C8.83928 11.5 8.62496 11.2857 8.62496 11.0208V9.10414C8.62496 8.83928 8.83928 8.62496 9.10414 8.62496H12.9375C13.2024 8.62496 13.4167 8.83928 13.4167 9.10414V18.6875ZM11.5 7.66668C10.4429 7.66668 9.58332 6.8071 9.58332 5.75C9.58332 4.6929 10.4429 3.83332 11.5 3.83332C12.5571 3.83332 13.4167 4.6929 13.4167 5.75C13.4167 6.8071 12.5571 7.66668 11.5 7.66668Z" fill="white"/>
</svg>
