<svg width="75" height="94" viewBox="0 0 75 94" fill="none" xmlns="http://www.w3.org/2000/svg">
<g style="mix-blend-mode:luminosity">
<g clip-path="url(#clip0)">
<path d="M59.7688 13.809C62.9513 10.6659 63.1287 5.68123 60.1651 2.67554C57.2016 -0.330139 52.2192 -0.218678 49.0368 2.9245C45.8543 6.06768 45.6769 11.0523 48.6404 14.058C51.604 17.0637 56.5863 16.9522 59.7688 13.809Z" fill="#C5982C"/>
<path d="M61.4768 4.50391L59.7979 6.18426L59.9665 6.3569L61.6071 4.73793C61.5534 4.65736 61.5151 4.58063 61.4768 4.50391Z" fill="#E2AD31"/>
<path d="M60.7828 3.39502L58.9199 5.23267L59.6674 5.99995L61.3732 4.31576C61.1999 3.99435 61.0026 3.68655 60.7828 3.39502Z" fill="#E2AD31"/>
<path d="M59.5181 4.41194L60.668 3.26101C60.5156 3.0611 60.3531 2.86903 60.1812 2.68555L58.9814 3.86716L59.5181 4.41194Z" fill="#E2AD31"/>
<path d="M55.9766 16.0988C60.0682 15.0512 62.5366 10.8822 61.4899 6.78704C60.4431 2.69193 56.2776 0.221459 52.1859 1.2691C48.0943 2.31674 45.6259 6.48576 46.6727 10.5809C47.7194 14.676 51.8849 17.1465 55.9766 16.0988Z" fill="#EFC24E"/>
<path d="M58.5332 4.28529C59.4021 5.16714 59.9902 6.28711 60.223 7.50352C60.4559 8.71993 60.323 9.97813 59.8413 11.119C59.3595 12.2598 58.5505 13.232 57.5166 13.9126C56.4827 14.5932 55.2704 14.9516 54.0329 14.9424C52.7954 14.9333 51.5885 14.5571 50.5647 13.8613C49.541 13.1655 48.7464 12.1815 48.2815 11.0337C47.8166 9.8859 47.7023 8.62587 47.953 7.41303C48.2037 6.20018 48.8082 5.08901 49.69 4.22007C50.2749 3.64306 50.9676 3.18702 51.7286 2.878C52.4895 2.56899 53.3039 2.41306 54.1251 2.41912C54.9463 2.42517 55.7583 2.5931 56.5146 2.9133C57.271 3.23351 57.9569 3.69971 58.5332 4.28529Z" fill="#E8B438"/>
<g style="mix-blend-mode:multiply">
<path d="M50.1451 12.975C49.3694 12.1892 48.8153 11.212 48.5392 10.1426C48.2631 9.07312 48.2748 7.94957 48.573 6.8861C48.8713 5.82262 49.4455 4.85712 50.2373 4.08769C51.0292 3.31826 52.0104 2.77233 53.0813 2.50537C52.2478 2.63807 51.4497 2.9383 50.7353 3.38798C50.0208 3.83765 49.4047 4.42746 48.9241 5.12185C48.4435 5.81624 48.1084 6.60083 47.9389 7.42833C47.7694 8.25584 47.7691 9.10912 47.9379 9.93675C48.1068 10.7644 48.4413 11.5492 48.9214 12.244C49.4015 12.9387 50.0171 13.529 50.7312 13.9792C51.4454 14.4295 52.2432 14.7303 53.0766 14.8636C53.91 14.997 54.7618 14.96 55.5805 14.7551C54.5984 14.9128 53.5928 14.8336 52.6474 14.524C51.702 14.2144 50.8441 13.6833 50.1451 12.975Z" fill="#F5ECD6"/>
</g>
<g style="mix-blend-mode:multiply">
<g style="mix-blend-mode:multiply">
<path d="M56.5697 10.0249L57.1792 10.6464L56.5084 11.3062L55.9219 10.7078C55.4032 11.1764 54.7762 11.5086 54.0973 11.6745L53.6642 10.5044C54.2906 10.3704 54.8669 10.0634 55.3278 9.61822C55.7839 9.16936 55.8376 8.85093 55.6498 8.67446C55.0403 8.0568 53.2694 10.6963 51.8396 9.24609C51.2378 8.63609 51.1649 7.68083 51.9584 6.67952L51.3643 6.06569L52.0312 5.40583L52.6254 6.00815C53.0473 5.64203 53.5446 5.3735 54.082 5.22168L54.5496 6.37261C54.0343 6.50979 53.5613 6.77352 53.1735 7.13989C52.7097 7.59259 52.6982 7.90717 52.8899 8.1105C53.4763 8.70515 55.2473 6.0772 56.6655 7.51586C57.229 8.1105 57.3095 9.03892 56.5697 10.0249Z" fill="#F5ECD6"/>
</g>
</g>
<path d="M56.2862 10.1394L56.8995 10.7609L56.2287 11.4208L55.6422 10.8223C55.1235 11.2909 54.4965 11.6231 53.8177 11.7891L53.3768 10.619C54.0028 10.4838 54.5788 10.177 55.0404 9.73276C55.4966 9.2839 55.5502 8.96547 55.3624 8.789C54.7529 8.17133 52.982 10.8108 51.5522 9.36062C50.9504 8.75063 50.8776 7.79536 51.6711 6.79406L51.0654 6.18023L51.7477 5.52037L52.3265 6.13803C52.7484 5.77191 53.2458 5.50338 53.7832 5.35156L54.2508 6.50249C53.7347 6.64058 53.2607 6.90415 52.8709 7.26977C52.4109 7.72631 52.3994 8.03706 52.591 8.24039C53.1775 8.83503 54.9484 6.20708 56.3667 7.64574C56.9494 8.22504 57.0299 9.15346 56.2862 10.1394Z" fill="#EFC24E"/>
<g style="mix-blend-mode:screen" opacity="0.2">
<path d="M55.0251 16.2739C55.4949 16.2168 55.9582 16.1153 56.4089 15.9708L53.8522 1.03564C53.38 1.04724 52.9101 1.10506 52.4492 1.20828L55.0251 16.2739Z" fill="#EFD489"/>
</g>
<g style="mix-blend-mode:screen" opacity="0.2">
<path d="M56.9682 15.7676C57.7489 15.4484 58.4715 15.0025 59.1071 14.4478L56.9031 1.56898C56.1144 1.25497 55.2786 1.076 54.4307 1.03955L56.9682 15.7676Z" fill="#EFD489"/>
</g>
<path d="M0 14.962L8.98881 0C12.0553 7.19329 17.9738 8.60893 25.0882 9.70231C32.2025 10.7957 38.121 12.1806 41.1875 19.4008L32.1987 34.3436C29.1322 27.1235 23.2137 25.7347 16.0994 24.6413C8.98497 23.548 3.06654 22.1323 0 14.962Z" fill="#8AAD4A"/>
<path d="M26.6022 18.2649C24.7738 21.334 20.6799 23.3673 17.1266 22.93C13.5732 22.4926 12.9024 18.7713 14.566 16.0781C16.4328 13.0781 20.4998 10.9143 24.0378 11.4169C27.5758 11.9195 28.2121 15.5832 26.6022 18.2649Z" fill="#63802D"/>
<path d="M19.5954 20.0719L19.0741 20.9351L17.9242 20.7625L18.3995 19.9492C17.6223 19.8279 16.8953 19.4887 16.3027 18.9709L17.6328 17.9197C18.167 18.4017 18.8359 18.7083 19.5494 18.7982C20.3506 18.9172 20.9217 18.6793 20.9294 18.522C20.9639 17.8737 17.4412 17.4478 18.4225 15.6677C18.8863 14.8237 20.1321 14.2175 21.8033 14.2943L22.3132 13.4272L23.4631 13.5999L22.9571 14.4401C23.5749 14.5534 24.1554 14.8168 24.6476 15.2073L23.3826 16.27C22.911 15.8923 22.3474 15.6473 21.7497 15.5603C20.9409 15.4414 20.3582 15.7291 20.3544 15.8902C20.3276 16.5079 23.8426 16.9414 22.8728 18.7062C22.432 19.5156 21.2207 20.118 19.5954 20.0719Z" fill="#CEEB98"/>
<path d="M9.11149 3.31104L1.64062 15.7295C8.69751 26.9434 25.023 19.8115 32.0684 31.0292L39.5431 18.6107C32.4862 7.39299 16.1684 14.5287 9.11149 3.31104ZM32.6165 25.263C32.467 25.0512 32.2662 24.8808 32.033 24.7677C31.7997 24.6546 31.5417 24.6025 31.2828 24.6163C31.024 24.6301 30.773 24.7093 30.553 24.8465C30.3331 24.9838 30.1516 25.1746 30.0253 25.4011C29.8659 25.6759 29.7751 25.9852 29.7608 26.3027C22.3973 21.1427 12.6112 23.4638 5.24765 18.3038C5.51453 18.1689 5.73681 17.9597 5.88779 17.7015C6.43593 16.7884 6.10245 15.4763 5.28598 14.5326C5.04872 14.2432 4.75364 14.0067 4.41968 13.8382C5.60541 11.8637 6.79242 9.88922 7.9807 7.91474C8.08612 8.33806 8.28671 8.7317 8.56718 9.06567C8.71675 9.2775 8.91753 9.44793 9.15077 9.56104C9.384 9.67415 9.64208 9.72624 9.90088 9.71244C10.1597 9.69865 10.4108 9.61942 10.6307 9.48216C10.8506 9.3449 11.0322 9.15409 11.1584 8.92756C11.3132 8.66188 11.4038 8.36365 11.4229 8.05669C18.7826 13.2013 28.5687 10.8803 35.9322 16.0403C35.6681 16.1777 35.4477 16.3863 35.2959 16.6426C34.744 17.5557 35.0774 18.8677 35.8978 19.8115C36.1363 20.1005 36.431 20.338 36.764 20.5097L33.203 26.4293C33.099 26.0009 32.8984 25.6019 32.6165 25.263Z" fill="#63802D"/>
<path d="M32.2337 20.7167C32.0821 20.8986 31.8706 21.0203 31.6372 21.0599C31.4039 21.0995 31.1641 21.0544 30.9611 20.9326C30.7581 20.8109 30.6052 20.6206 30.53 20.396C30.4548 20.1714 30.4622 19.9273 30.5509 19.7078C30.6887 19.493 30.9046 19.3404 31.1528 19.2822C31.4011 19.224 31.6622 19.2648 31.8809 19.396C32.0996 19.5271 32.2588 19.7383 32.3246 19.9848C32.3905 20.2314 32.3578 20.4939 32.2337 20.7167Z" fill="#CEEB98"/>
<path d="M9.96624 14.2944C9.90486 14.3911 9.86447 14.4996 9.84769 14.6129C9.83091 14.7262 9.83812 14.8418 9.86884 14.9521C9.89956 15.0624 9.95311 15.1651 10.026 15.2534C10.0989 15.3416 10.1896 15.4136 10.2921 15.4645C10.5125 15.5642 10.7615 15.5802 10.9929 15.5096C11.2242 15.439 11.422 15.2866 11.5493 15.0809C11.6102 14.9866 11.6495 14.8801 11.6647 14.7689C11.6799 14.6577 11.6706 14.5445 11.6373 14.4373C11.6041 14.3301 11.5477 14.2315 11.4722 14.1485C11.3968 14.0655 11.304 14.0001 11.2005 13.9568C10.9897 13.8493 10.7464 13.8243 10.5181 13.8867C10.2899 13.9491 10.0931 14.0945 9.96624 14.2944Z" fill="#CEEB98"/>
<path d="M9.77086 53.5872C8.10343 53.9709 6.91131 54.9875 7.11063 55.8239C7.30996 56.6602 8.7474 57.0323 10.4915 56.6142L17.9164 87.8004C18.1092 88.602 18.6116 89.2944 19.3136 89.7259C20.0156 90.1574 20.8599 90.2927 21.6614 90.1023L73.8501 77.6569C74.2363 77.5641 74.5699 77.3217 74.7776 76.9829C74.9853 76.6441 75.0502 76.2366 74.9579 75.85L66.7894 41.5294C66.7439 41.3376 66.6611 41.1567 66.5457 40.9971C66.4304 40.8374 66.2847 40.702 66.117 40.5987C65.9494 40.4954 65.763 40.4261 65.5686 40.3949C65.3742 40.3637 65.1755 40.3711 64.984 40.4168L9.77086 53.5872Z" fill="#733D3D"/>
<path d="M46.7652 53.7751L30.0908 45.3733C37.5157 41.5369 38.5506 35.0802 39.1448 27.392C39.7389 19.7038 40.7394 13.2663 48.1949 9.41455L64.8578 17.8163C57.4022 21.6719 56.3979 28.1056 55.8038 35.7938C55.2096 43.482 54.1785 49.9348 46.7652 53.7751Z" fill="#8AAD4A"/>
<path d="M48.1564 25.0824C51.5564 26.7896 54.0748 31.002 53.9061 34.8307C53.7375 38.6595 49.8123 39.6799 46.8033 38.1032C43.4569 36.3499 40.8197 32.1798 41.0535 28.3548C41.2873 24.5299 45.1665 23.5823 48.1564 25.0824Z" fill="#63802D"/>
<path d="M50.6478 32.4253L51.61 32.9125C51.5755 33.4189 51.5563 33.6798 51.5218 34.1747L50.598 33.7066C50.46 34.7271 50.1304 35.598 49.724 36.0085L48.5166 34.6926C48.9825 34.0789 49.25 33.3373 49.2832 32.5672C49.3446 31.704 49.0456 31.1132 48.8731 31.117C48.1793 31.117 48.0106 34.9304 46.0327 34.0251C45.0936 33.5954 44.3461 32.314 44.2963 30.5224L43.3418 30.039C43.3763 29.5326 43.3955 29.2717 43.43 28.7768L44.3691 29.2487C44.4382 28.5789 44.6726 27.9369 45.0514 27.3804L46.2742 28.6617C45.9087 29.1961 45.693 29.8188 45.6494 30.4649C45.588 31.3357 45.9407 31.9342 46.1132 31.9304C46.7725 31.9035 46.9527 28.117 48.9114 29.0109C49.8314 29.4367 50.5673 30.6912 50.6478 32.4253Z" fill="#CEEB98"/>
<path d="M33.6133 44.9742L47.4626 51.9603C58.8586 43.5202 49.935 26.6591 61.3348 18.1998L47.4856 11.229C36.0857 19.673 45.0093 36.534 33.6133 44.9742ZM55.1366 18.0924C54.1936 19.0438 54.4734 20.3367 55.4892 20.8507C55.7952 21.0014 56.1336 21.0738 56.4744 21.0618C51.5641 29.3446 54.8261 39.6147 49.9158 47.8975C49.7482 47.6248 49.5079 47.4043 49.222 47.2607C48.2024 46.7466 46.8301 47.2108 45.8871 48.1584C45.6047 48.4397 45.3818 48.775 45.2317 49.1444L38.6271 45.8105C39.0769 45.667 39.4874 45.4215 39.8269 45.0931C40.766 44.1455 40.49 42.8488 39.4704 42.3347C39.1645 42.1878 38.8282 42.1154 38.4891 42.1237C43.3994 33.8447 40.1374 23.5746 45.0477 15.2918C45.2134 15.5651 45.4543 15.7848 45.7415 15.9248C46.7611 16.4389 48.1334 15.9785 49.0725 15.0271C49.3617 14.749 49.5913 14.4148 49.7471 14.0449L56.3479 17.375C55.8943 17.5176 55.4798 17.7631 55.1366 18.0924Z" fill="#63802D"/>
<path d="M50.3028 18.8712C50.5122 19.0173 50.6619 19.2341 50.7246 19.4817C50.7873 19.7293 50.7588 19.9913 50.6443 20.2196C50.5298 20.4479 50.3369 20.6273 50.101 20.7249C49.8652 20.8225 49.602 20.8318 49.3599 20.751C49.133 20.6136 48.9662 20.3957 48.8928 20.1407C48.8194 19.8856 48.8446 19.6123 48.9636 19.3751C49.0826 19.1379 49.2865 18.9543 49.5347 18.8609C49.7829 18.7675 50.0572 18.7712 50.3028 18.8712Z" fill="#CEEB98"/>
<path d="M45.2583 43.1752C45.3664 43.2326 45.4853 43.2667 45.6074 43.2754C45.7295 43.2841 45.8521 43.2671 45.9672 43.2255C46.0824 43.184 46.1876 43.1188 46.2761 43.0341C46.3646 42.9495 46.4344 42.8473 46.4811 42.734C46.5689 42.4896 46.5652 42.2216 46.4708 41.9797C46.3763 41.7377 46.1975 41.5382 45.9674 41.4181C45.861 41.3631 45.7441 41.3316 45.6245 41.3257C45.5049 41.3199 45.3854 41.3398 45.2742 41.3842C45.163 41.4286 45.0626 41.4964 44.9798 41.583C44.897 41.6696 44.8338 41.773 44.7944 41.8862C44.6982 42.1203 44.6924 42.3819 44.7781 42.6202C44.8638 42.8584 45.0349 43.0562 45.2583 43.1752Z" fill="#CEEB98"/>
<path d="M42.3529 62.6949L30.6426 48.1587C38.9912 47.729 42.5944 42.2775 46.305 35.5215C50.0155 28.7656 53.588 23.3179 61.9635 22.8882L73.6739 37.4244C65.2945 37.8541 61.7258 43.3018 58.0153 50.0616C54.3048 56.8213 50.7016 62.2652 42.3529 62.6949Z" fill="#8AAD4A"/>
<path d="M55.4661 37.1442C57.858 40.1021 58.4138 44.982 56.6697 48.3926C54.9256 51.8032 50.9429 51.1165 48.85 48.4386C46.5233 45.4577 45.841 40.5701 47.6464 37.1903C49.4518 33.8104 53.3616 34.5278 55.4661 37.1442Z" fill="#63802D"/>
<path d="M54.7074 44.859L55.3858 45.703C55.1405 46.1442 55.0025 46.3706 54.7802 46.8156L54.1286 46.0023C53.7202 46.7406 53.1116 47.3484 52.373 47.7555C52.1545 47.0765 52.0395 46.735 51.8171 46.056C52.5001 45.6951 53.0556 45.1325 53.4079 44.4447C53.8219 43.6774 53.7912 43.0214 53.6341 42.9562C52.9978 42.6799 51.2767 46.0713 49.8469 44.4293C49.1722 43.6621 49.0189 42.1735 49.7127 40.52L49.0381 39.6875L49.6437 38.575L50.303 39.3921C50.6426 38.8112 51.1206 38.3235 51.6945 37.9727C51.9283 38.6402 52.0471 38.974 52.281 39.6453C51.7288 39.9805 51.2762 40.4573 50.97 41.0264C50.5522 41.7937 50.6289 42.4881 50.786 42.561C51.3955 42.8104 53.1243 39.4343 54.5387 41.061C55.198 41.8167 55.3513 43.2401 54.7074 44.859Z" fill="#CEEB98"/>
<path d="M34.0156 49.2519L43.7481 61.3366C57.6088 58.3557 56.4359 39.3117 70.3005 36.3308L60.5642 24.2461C46.7034 27.2385 47.8764 46.271 34.0156 49.2519ZM64.7041 33.6607C63.4544 34.1364 63.1708 35.4293 63.8914 36.3193C64.1077 36.5823 64.3856 36.7879 64.7002 36.9178C56.8115 42.4346 55.5466 53.1343 47.6579 58.6473C47.6148 58.3289 47.4818 58.0294 47.2746 57.7841C46.5578 56.894 45.1165 56.7483 43.8669 57.224C43.4895 57.3579 43.1438 57.5682 42.8511 57.8416L38.2091 52.087C38.6779 52.1393 39.1524 52.0842 39.5967 51.9259C40.8464 51.4502 41.13 50.1573 40.4094 49.2672C40.1937 49.0052 39.9174 48.7997 39.6044 48.6688C47.4892 43.1558 48.7542 32.4522 56.6429 26.9393C56.6862 27.2576 56.8191 27.557 57.0262 27.8025C57.7392 28.6925 59.1804 28.8383 60.4301 28.3626C60.8081 28.2276 61.1549 28.0175 61.4497 27.7449L66.0878 33.4995C65.6203 33.4463 65.1469 33.5014 64.7041 33.6607Z" fill="#63802D"/>
<path d="M59.9817 32.3715C60.1119 32.591 60.1587 32.85 60.1138 33.1012C60.0688 33.3525 59.935 33.5791 59.7369 33.7397C59.5387 33.9004 59.2894 33.9842 59.0345 33.976C58.7796 33.9678 58.5362 33.8681 58.3488 33.6951C58.1994 33.4763 58.1378 33.2093 58.1762 32.9471C58.2145 32.6849 58.35 32.4468 58.5557 32.2801C58.7615 32.1133 59.0224 32.0301 59.2866 32.0471C59.5508 32.064 59.7989 32.1798 59.9817 32.3715Z" fill="#CEEB98"/>
<path d="M45.3659 52.4244C45.4407 52.5214 45.5349 52.6016 45.6426 52.66C45.7502 52.7183 45.8688 52.7535 45.9908 52.7633C46.1128 52.773 46.2355 52.7571 46.351 52.7166C46.4665 52.6761 46.5723 52.6119 46.6615 52.528C46.8423 52.3413 46.9493 52.0954 46.9627 51.8358C46.9761 51.5762 46.895 51.3205 46.7344 51.1162C46.6601 51.0229 46.5668 50.9465 46.4606 50.8923C46.3544 50.838 46.2379 50.8071 46.1188 50.8017C45.9997 50.7962 45.8808 50.8163 45.7701 50.8606C45.6594 50.905 45.5595 50.9725 45.4771 51.0587C45.291 51.231 45.1763 51.467 45.1557 51.7199C45.1351 51.9728 45.2101 52.2242 45.3659 52.4244Z" fill="#CEEB98"/>
<path d="M38.2584 44.3068C41.3163 41.5249 42.021 37.3162 39.8324 34.9064C37.6438 32.4966 33.3906 32.7982 30.3327 35.5801C27.2748 38.362 26.5701 42.5707 28.7587 44.9806C30.9473 47.3904 35.2005 47.0887 38.2584 44.3068Z" fill="#C5982C"/>
<path d="M40.1679 41.8857H38.2168L38.167 42.0967H40.0491C40.0913 42.0277 40.1296 41.9548 40.1679 41.8857Z" fill="#E2AD31"/>
<path d="M40.666 40.7734H38.5271L38.3086 41.698H40.2673C40.4199 41.3987 40.5531 41.0899 40.666 40.7734Z" fill="#E2AD31"/>
<path d="M39.3779 40.6277H40.7196C40.7963 40.4036 40.8616 40.1756 40.915 39.9448H39.5428L39.3779 40.6277Z" fill="#E2AD31"/>
<path d="M38.1981 43.7035C40.8691 40.6596 41.122 36.5112 38.7631 34.4377C36.4041 32.3643 32.3265 33.1511 29.6556 36.195C26.9846 39.2389 26.7317 43.3874 29.0906 45.4608C31.4496 47.5342 35.5272 46.7475 38.1981 43.7035Z" fill="#EFC24E"/>
<path d="M37.4211 43.0101C39.6055 40.5198 39.8119 37.1265 37.8821 35.4309C35.9523 33.7353 32.6171 34.3795 30.4327 36.8698C28.2483 39.3601 28.0419 42.7535 29.9717 44.4491C31.9015 46.1447 35.2367 45.5004 37.4211 43.0101Z" fill="#E8B438"/>
<g style="mix-blend-mode:multiply">
<path d="M29.132 40.1982C29.8527 37.1827 32.7237 34.7428 35.5488 34.7428C36.4182 34.7278 37.2688 34.9972 37.9713 35.51C37.2275 34.8357 36.2532 34.4731 35.2498 34.4972C32.4247 34.4972 29.5537 36.941 28.833 39.9526C28.3539 41.9514 28.948 43.7008 30.2245 44.6484C29.132 43.6548 28.6759 42.032 29.132 40.1982Z" fill="#F5ECD6"/>
</g>
<g style="mix-blend-mode:multiply">
<g style="mix-blend-mode:multiply">
<path d="M34.0418 42.3041L33.8616 43.0714H33.095L33.2713 42.3425C32.7323 42.3241 32.2114 42.1436 31.7764 41.8245L32.4318 40.8271C32.8203 41.1343 33.3013 41.3007 33.7965 41.2989C34.3216 41.2989 34.5631 41.1417 34.6168 40.9153C34.7969 40.148 32.1214 40.712 32.543 38.9395C32.7232 38.1723 33.3786 37.5546 34.4596 37.405L34.6398 36.6377H35.4064L35.2301 37.3743C35.6585 37.3913 36.0743 37.5239 36.4337 37.7579L35.805 38.7592C35.4681 38.5202 35.0679 38.3867 34.6551 38.3756C34.1223 38.3756 33.8885 38.5674 33.831 38.8053C33.6546 39.5342 36.3264 38.9894 35.9047 40.7503C35.7938 41.1708 35.5548 41.5463 35.221 41.8248C34.8872 42.1032 34.475 42.2707 34.0418 42.3041Z" fill="#F5ECD6"/>
</g>
</g>
<path d="M33.8357 42.2006L33.6555 42.9679H32.8889L33.0613 42.2389C32.5224 42.2206 32.0014 42.0401 31.5664 41.721L32.2219 40.7235C32.6103 41.0308 33.0914 41.1971 33.5865 41.1954C34.1116 41.1954 34.3531 41.0381 34.4106 40.8118C34.5908 40.0445 31.9114 40.6085 32.3369 38.836C32.5132 38.0687 33.1725 37.4511 34.2535 37.3015L34.4298 36.5342H35.1964L35.0201 37.2708C35.4473 37.2878 35.862 37.4203 36.2199 37.6544L35.5912 38.6557C35.2547 38.4161 34.8542 38.2825 34.4413 38.2721C33.9123 38.2721 33.6747 38.4639 33.6172 38.7018C33.4447 39.4307 36.1126 38.8859 35.6909 40.6468C35.5804 41.0662 35.3426 41.4408 35.0103 41.7191C34.678 41.9974 34.2676 42.1657 33.8357 42.2006Z" fill="#EFC24E"/>
<g style="mix-blend-mode:screen" opacity="0.2">
<path d="M28.8564 45.2349C29.104 45.4868 29.3807 45.7084 29.6806 45.8948L39.3517 35.0607C39.1382 34.7762 38.8911 34.5186 38.6157 34.2935L28.8564 45.2349Z" fill="#EFD489"/>
</g>
<g style="mix-blend-mode:screen" opacity="0.2">
<path d="M30.0674 46.1098C30.6588 46.3966 31.301 46.5635 31.9571 46.6009L40.2943 37.263C40.1852 36.6134 39.9523 35.9908 39.6082 35.4292L30.0674 46.1098Z" fill="#EFD489"/>
</g>
<path d="M25.5175 59.6104C29.9887 59.6104 33.6132 56.1871 33.6132 51.9644C33.6132 47.7416 29.9887 44.3184 25.5175 44.3184C21.0464 44.3184 17.4219 47.7416 17.4219 51.9644C17.4219 56.1871 21.0464 59.6104 25.5175 59.6104Z" fill="#C5982C"/>
<path d="M33.264 54.1895H30.876V54.4312H33.1759C33.2104 54.3506 33.2372 54.27 33.264 54.1895Z" fill="#E2AD31"/>
<path d="M33.5478 52.9121H30.9336V53.971H33.3485C33.4424 53.6237 33.509 53.2697 33.5478 52.9121Z" fill="#E2AD31"/>
<path d="M31.9346 52.7473H33.5713C33.5984 52.4924 33.6125 52.2363 33.6135 51.98H31.9346V52.7473Z" fill="#E2AD31"/>
<path d="M25.0691 59.6179C29.2925 59.6179 32.7163 56.1912 32.7163 51.9642C32.7163 47.7372 29.2925 44.3105 25.0691 44.3105C20.8456 44.3105 17.4219 47.7372 17.4219 51.9642C17.4219 56.1912 20.8456 59.6179 25.0691 59.6179Z" fill="#EFC24E"/>
<path d="M25.0692 58.2252C28.5242 58.2252 31.325 55.422 31.325 51.9642C31.325 48.5063 28.5242 45.7031 25.0692 45.7031C21.6143 45.7031 18.8135 48.5063 18.8135 51.9642C18.8135 55.422 21.6143 58.2252 25.0692 58.2252Z" fill="#E8B438"/>
<g style="mix-blend-mode:multiply">
<path d="M19.2536 52.2518C19.2571 51.1492 19.5514 50.067 20.1069 49.1148C20.6624 48.1626 21.4593 47.3741 22.417 46.829C23.3747 46.284 24.4592 46.0017 25.5609 46.0108C26.6625 46.0199 27.7423 46.32 28.6909 46.8808C28.0037 46.3853 27.2232 46.0346 26.3966 45.85C25.57 45.6654 24.7146 45.6507 23.8822 45.8068C23.0497 45.9628 22.2576 46.2865 21.5539 46.758C20.8501 47.2296 20.2494 47.8392 19.788 48.55C19.3267 49.2609 19.0143 50.058 18.8699 50.8932C18.7255 51.7285 18.7521 52.5843 18.948 53.409C19.1439 54.2336 19.505 55.0099 20.0096 55.6907C20.5141 56.3715 21.1515 56.9426 21.8831 57.3696C21.0674 56.7896 20.4028 56.022 19.9452 55.1314C19.4876 54.2408 19.2504 53.2532 19.2536 52.2518Z" fill="#F5ECD6"/>
</g>
<g style="mix-blend-mode:multiply">
<g style="mix-blend-mode:multiply">
<path d="M25.8965 54.669V55.536H24.9573V54.6996C24.2565 54.6669 23.575 54.4584 22.9756 54.0935L23.4854 52.9426C24.0256 53.2952 24.6537 53.4893 25.2985 53.5027C25.9425 53.5027 26.1916 53.3224 26.1916 53.0577C26.1916 52.1868 23.0791 52.8198 23.0791 50.7865C23.0791 49.9233 23.6962 49.1982 24.965 49.0409V48.1777H25.9041V49.0256C26.4579 49.064 26.9968 49.2224 27.4834 49.4898L27.0043 50.6407C26.5361 50.3749 26.0091 50.2298 25.471 50.2187C24.8232 50.2187 24.5894 50.4374 24.5894 50.7098C24.5894 51.5499 27.6942 50.9208 27.6942 52.9426C27.7096 53.7674 27.1154 54.4771 25.8965 54.669Z" fill="#F5ECD6"/>
</g>
</g>
<path d="M25.6133 54.5541V55.4211H24.678V54.5848C23.9781 54.556 23.2966 54.3515 22.6963 53.9901L23.2061 52.8392C23.7461 53.1837 24.3712 53.371 25.0115 53.3801C25.6555 53.3801 25.9047 53.1998 25.9047 52.9351C25.9047 52.0642 22.7921 52.6972 22.7921 50.6639C22.7921 49.8007 23.4093 49.0757 24.678 48.9184V48.0552H25.6133V48.903C26.1708 48.9386 26.7137 49.0958 27.2041 49.3634L26.725 50.5143C26.2566 50.2489 25.7298 50.1039 25.1917 50.0923C24.5439 50.0923 24.3101 50.311 24.3101 50.5834C24.3101 51.4236 27.4149 50.7982 27.4149 52.8162C27.4303 53.6525 26.8323 54.3738 25.6133 54.5541Z" fill="#EFC24E"/>
<g style="mix-blend-mode:screen" opacity="0.2">
<path d="M20.4121 58.0335C20.7859 58.3262 21.1863 58.5831 21.6081 58.8008L30.2825 46.3593C29.9364 46.0366 29.5603 45.7475 29.1594 45.4961L20.4121 58.0335Z" fill="#EFD489"/>
</g>
<g style="mix-blend-mode:screen" opacity="0.2">
<path d="M22.1475 59.0386C22.9286 59.3606 23.7575 59.5511 24.6007 59.6026L32.0677 48.8874C31.728 48.1144 31.263 47.4027 30.6916 46.7812L22.1475 59.0386Z" fill="#EFD489"/>
</g>
<g style="mix-blend-mode:multiply">
<path d="M58.0152 50.0614C59.744 46.9117 61.4421 44.0459 63.6117 41.8438C63.5135 41.8472 63.416 41.86 63.3203 41.8821L17.4717 52.8351C17.5893 53.8537 17.9106 54.8382 18.4164 55.73C18.9221 56.6217 19.602 57.4025 20.4156 58.0258C20.4654 58.0641 20.5229 58.0948 20.5727 58.1332C20.6877 58.2176 20.8027 58.302 20.9215 58.3787C21.0404 58.4554 21.0825 58.4785 21.1669 58.5245C21.2512 58.5705 21.416 58.6741 21.5502 58.7432L21.6153 58.7815C21.7917 58.8698 21.9718 58.958 22.152 59.0309C22.3513 59.1115 22.5353 59.1844 22.7538 59.2496C22.8381 59.2764 22.9263 59.2956 23.0106 59.3186C23.095 59.3417 23.2866 59.3954 23.4284 59.4261C23.5703 59.4568 23.6316 59.4644 23.7351 59.4836L24.1184 59.545L24.4404 59.5757L24.5976 59.5949C24.7509 59.5949 24.9042 59.6179 25.0614 59.6179C25.1534 59.6179 25.2454 59.6179 25.3374 59.6179H25.5099C27.1647 59.6481 28.7886 59.1671 30.1605 58.2404C31.5323 57.3136 32.5854 55.9861 33.1762 54.4387L33.2222 54.3006C33.2222 54.2699 33.2452 54.2431 33.2529 54.2162V54.197C33.2529 54.1241 33.2874 54.0512 33.3104 53.9783C33.3372 53.8824 33.3602 53.7827 33.3832 53.6791C33.4062 53.5755 33.4215 53.5372 33.4369 53.4643C33.4752 53.284 33.5059 53.1036 33.5289 52.9195C33.5289 52.8619 33.5519 52.8082 33.5557 52.7545C33.5828 52.4997 33.5969 52.2436 33.5979 51.9872C33.5979 51.945 33.5979 51.9028 33.5979 51.8606L42.3452 62.7177C50.7015 62.265 54.3047 56.8173 58.0152 50.0614Z" fill="#CFCFA6"/>
</g>
<path d="M10.4912 56.6143C7.35951 57.2511 7.11035 55.824 7.11035 55.824L7.463 57.3125C7.463 57.3125 13.8414 84.1061 15.9688 93.0373C16.1222 93.6894 17.3373 94.311 19.3535 93.8314L71.5423 81.3822C71.7334 81.3367 71.9136 81.2539 72.0727 81.1386C72.2318 81.0234 72.3666 80.8779 72.4695 80.7104C72.5724 80.5429 72.6413 80.3568 72.6723 80.1627C72.7032 79.9686 72.6957 79.7703 72.6501 79.5791L64.4777 45.27C64.4327 45.0784 64.3503 44.8976 64.2353 44.738C64.1203 44.5783 63.9749 44.4429 63.8076 44.3396C63.6402 44.2362 63.4542 44.1669 63.26 44.1357C63.0658 44.1044 62.8674 44.1118 62.6761 44.1574L10.4912 56.6143Z" fill="#E06F6F"/>
<path d="M7.11398 55.8438V55.8237C7.11305 55.8304 7.11305 55.8371 7.11398 55.8438Z" fill="#C07F7F"/>
<g style="mix-blend-mode:multiply">
<path d="M71.987 76.7862L23.8346 88.2686C21.8183 88.7482 20.6032 88.1267 20.4499 87.4745C18.8515 80.7607 14.8496 63.9572 12.9637 56.0158L10.4913 56.6066C7.57041 57.2013 7.15642 56.0005 7.11426 55.8394L7.46308 57.3087C7.46308 57.3087 13.8415 84.1023 15.9689 93.0335C16.1222 93.6857 17.3373 94.3072 19.3536 93.8276L71.5423 81.3784C71.7334 81.3329 71.9136 81.2501 72.0727 81.1348C72.2318 81.0196 72.3667 80.8741 72.4696 80.7066C72.5724 80.5391 72.6413 80.353 72.6723 80.1589C72.7033 79.9648 72.6958 79.7665 72.6501 79.5753L71.987 76.7862Z" fill="#F8E6E6"/>
</g>
<g style="mix-blend-mode:multiply">
<path d="M67.3875 57.4731L51.7979 61.1868C50.274 61.5501 48.9568 62.5044 48.1358 63.8397C47.3149 65.175 47.0576 66.782 47.4204 68.3072C47.5997 69.0631 47.9261 69.7763 48.381 70.4059C48.8359 71.0355 49.4103 71.5692 50.0714 71.9764C50.7325 72.3837 51.4673 72.6565 52.2338 72.7793C53.0004 72.9022 53.7836 72.8726 54.5386 72.6922L70.1244 68.9747L67.3875 57.4731Z" fill="#F8E6E6"/>
</g>
<path d="M69.6677 56.948C70.4343 56.7408 70.327 56.3955 70.327 56.3955L70.4152 56.7792C70.4152 56.7792 71.9906 63.4123 72.5196 65.6029C72.5579 65.7641 72.3586 66.0364 71.8603 66.1554L53.6642 70.5059C53.0596 70.6503 52.4325 70.674 51.8188 70.5757C51.205 70.4774 50.6167 70.259 50.0873 69.933C49.558 69.607 49.098 69.1798 48.7337 68.6757C48.3694 68.1717 48.1079 67.6008 47.9642 66.9955C47.8199 66.3902 47.7962 65.7624 47.8943 65.1479C47.9925 64.5333 48.2107 63.9442 48.5364 63.4141C48.8621 62.884 49.2889 62.4233 49.7926 62.0583C50.2962 61.6933 50.8667 61.4312 51.4716 61.2869L69.6677 56.948Z" fill="#8E4949"/>
<g style="mix-blend-mode:multiply">
<path d="M55.6767 65.5759C55.816 66.1708 55.7761 66.7937 55.562 67.3659C55.3479 67.9381 54.9693 68.434 54.4738 68.791C53.9784 69.148 53.3884 69.3501 52.7783 69.3718C52.1681 69.3935 51.5653 69.2338 51.0458 68.9128C50.5263 68.5919 50.1135 68.1241 49.8594 67.5685C49.6053 67.0129 49.5214 66.3945 49.6182 65.7912C49.715 65.1879 49.9883 64.6269 50.4034 64.1789C50.8186 63.7309 51.357 63.416 51.9508 63.2741C52.3465 63.1795 52.757 63.164 53.1586 63.2286C53.5603 63.2932 53.9453 63.4365 54.2915 63.6504C54.6377 63.8643 54.9382 64.1445 55.1759 64.4749C55.4137 64.8053 55.5838 65.1795 55.6767 65.5759Z" fill="#E8B7B7"/>
</g>
<path d="M52.2386 69.1116C53.9465 69.0702 55.2975 67.6508 55.256 65.9415C55.2146 64.2321 53.7965 62.88 52.0886 62.9215C50.3806 62.963 49.0297 64.3823 49.0711 66.0917C49.1126 67.801 50.5307 69.1531 52.2386 69.1116Z" fill="#F3D4D4"/>
<g style="mix-blend-mode:overlay">
<path d="M52.744 64.7359C52.8085 65.0076 52.791 65.2923 52.6938 65.554C52.5966 65.8158 52.424 66.0428 52.1979 66.2064C51.9718 66.37 51.7023 66.4628 51.4234 66.4731C51.1446 66.4833 50.869 66.4106 50.6315 66.2641C50.394 66.1176 50.2052 65.9039 50.089 65.65C49.9729 65.3961 49.9345 65.1135 49.9789 64.8378C50.0232 64.5621 50.1483 64.3057 50.3382 64.1012C50.5281 63.8966 50.7744 63.753 51.0459 63.6885C51.4098 63.6021 51.7932 63.6639 52.1116 63.8603C52.4301 64.0567 52.6575 64.3717 52.744 64.7359Z" fill="#F7E4E4"/>
</g>
<path d="M14.2754 38.5841C16.4334 37.0807 17.2004 34.4494 15.9886 32.707C14.7768 30.9645 12.0449 30.7706 9.88693 32.274C7.72891 33.7774 6.96188 36.4087 8.17372 38.1511C9.38555 39.8936 12.1174 40.0875 14.2754 38.5841Z" fill="#C5982C"/>
<path d="M9.24586 39.1314L9.748 37.9268L9.61767 37.8999L9.13086 39.0508L9.24586 39.1314Z" fill="#E2AD31"/>
<path d="M9.87859 39.3923L10.4267 38.0725L9.85176 37.9805L9.34961 39.1928C9.5205 39.2729 9.69736 39.3396 9.87859 39.3923Z" fill="#E2AD31"/>
<path d="M10.3069 38.5942L9.96191 39.4229C10.0961 39.4613 10.2341 39.4958 10.3759 39.5227L10.7285 38.6748L10.3069 38.5942Z" fill="#E2AD31"/>
<path d="M10.5684 39.0702C8.26851 38.6367 7.13773 36.5535 8.02702 34.4204C8.52131 33.3524 9.35014 32.4749 10.3878 31.9211C11.4254 31.3672 12.6153 31.1671 13.7768 31.3513C16.0767 31.7848 17.2075 33.8641 16.3182 36.001C15.8229 37.0682 14.9939 37.9449 13.9565 38.4987C12.9191 39.0524 11.7298 39.253 10.5684 39.0702Z" fill="#EFC24E"/>
<path d="M10.859 38.3645C8.98459 38.0116 8.05697 36.3082 8.78144 34.5626C9.18535 33.6864 9.86401 32.9661 10.7143 32.5111C11.5646 32.0562 12.5401 31.8915 13.4924 32.0421C15.3668 32.3989 16.2945 34.0984 15.57 35.844C15.1671 36.721 14.4886 37.4421 13.638 37.8972C12.7875 38.3523 11.8115 38.5164 10.859 38.3645Z" fill="#E8B438"/>
<g style="mix-blend-mode:multiply">
<path d="M13.2432 32.2257C15.1176 32.5825 16.0491 34.2859 15.3208 36.0315C15.0664 36.6281 14.6719 37.1545 14.1708 37.566C14.7821 37.132 15.2633 36.539 15.5623 35.8511C16.2868 34.1056 15.3591 32.3984 13.4847 32.0493C12.8529 31.9487 12.2068 31.9861 11.5908 32.1589C10.9748 32.3318 10.4035 32.6359 9.91602 33.0506C10.3868 32.6965 10.9241 32.441 11.4958 32.2993C12.0674 32.1576 12.6617 32.1326 13.2432 32.2257Z" fill="#F5ECD6"/>
</g>
<g style="mix-blend-mode:multiply">
<g style="mix-blend-mode:multiply">
<path d="M10.5379 35.3448L10.0664 35.2565L10.2619 34.7808L10.718 34.8652C10.892 34.5009 11.1447 34.1798 11.4579 33.9253L11.9677 34.3089C11.6754 34.5343 11.4446 34.8299 11.2969 35.1683C11.1589 35.4906 11.2049 35.6363 11.3505 35.6632C11.822 35.7514 12.1172 34.1286 13.2364 34.3243C13.7003 34.4125 13.9648 34.7962 13.7846 35.4752L14.2522 35.5634L14.0529 36.0353L13.5968 35.9509C13.4543 36.2432 13.2549 36.5041 13.0103 36.7182L12.489 36.3614C12.7256 36.1497 12.9116 35.8875 13.0333 35.5941C13.1675 35.268 13.0985 35.1261 12.9528 35.0992C12.4966 35.011 12.1862 36.6338 11.0899 36.4381C10.6414 36.3537 10.3769 35.9778 10.5379 35.3448Z" fill="#F5ECD6"/>
</g>
</g>
<path d="M10.6561 35.2145L10.1846 35.1262L10.3839 34.6505L10.8362 34.7349C11.0117 34.3727 11.2642 34.0532 11.576 33.7988L12.0897 34.1825C11.7974 34.4088 11.5656 34.704 11.415 35.0418C11.2809 35.3641 11.3269 35.5099 11.4687 35.5367C11.9402 35.625 12.2353 34.0022 13.3546 34.1978C13.8223 34.2861 14.0867 34.6735 13.9066 35.3487L14.3704 35.437L14.1826 35.8782L13.7226 35.7938C13.5802 36.0851 13.3822 36.3457 13.1399 36.5611L12.6148 36.2004C12.8489 36.0023 13.0361 35.7547 13.1629 35.4753C13.3009 35.1492 13.2319 35.0073 13.0825 34.9804C12.6301 34.8922 12.3158 36.515 11.2195 36.3194C10.7634 36.2234 10.4989 35.8475 10.6561 35.2145Z" fill="#EFC24E"/>
<g style="mix-blend-mode:screen" opacity="0.2">
<path d="M9.86619 32.2261C9.63142 32.3862 9.40851 32.5632 9.19922 32.7555L14.1134 38.4104C14.3604 38.2688 14.5962 38.1085 14.8187 37.9308L9.86619 32.2261Z" fill="#EFD489"/>
</g>
<g style="mix-blend-mode:screen" opacity="0.2">
<path d="M8.95409 32.9932C8.62413 33.3446 8.34772 33.7427 8.13379 34.1748L12.3695 39.0509C12.8652 38.9592 13.3462 38.8005 13.7992 38.579L8.95409 32.9932Z" fill="#EFD489"/>
</g>
<path d="M31.2787 5.21379C30.7574 4.02066 28.9328 2.49377 26.5486 1.99119C24.0915 1.47711 21.9028 1.86843 21.0173 2.96948V2.94646H20.7835L20.6416 3.71375C20.6416 3.71375 20.6416 3.73677 20.6416 3.74828C20.4002 4.91839 22.6694 6.3839 25.6478 7.00923C28.6262 7.63457 31.1522 7.19338 31.3976 6.04246V5.99642L31.5394 5.19844L31.2787 5.21379Z" fill="#C5982C"/>
<path d="M23.3828 6.33786C23.6435 6.44145 23.9156 6.54119 24.2031 6.6371L24.5864 5.10253L23.7661 4.86084L23.3828 6.33786Z" fill="#E2AD31"/>
<path d="M24.3252 6.6715C24.5207 6.73288 24.7085 6.79043 24.9308 6.84414L25.2758 5.39397L24.6702 5.229L24.3252 6.6715Z" fill="#E2AD31"/>
<path d="M25.644 7.0165L26.1309 7.10857L26.4797 5.66224L25.5175 5.40137L25.1572 6.90524L25.644 7.0165Z" fill="#E2AD31"/>
<path d="M31.5543 5.19834C31.3396 6.34926 28.7561 6.79813 25.7777 6.1843C22.7993 5.57047 20.5607 4.13181 20.7716 2.97321C20.9824 1.81461 23.5698 1.37343 26.5482 1.98725C29.5265 2.60108 31.7651 4.03974 31.5543 5.19834Z" fill="#EFC24E"/>
<path d="M30.5731 4.98728C30.4006 5.93488 28.2732 6.2955 25.8506 5.79293C23.428 5.29036 21.5804 4.12408 21.7568 3.17649C21.9331 2.22889 24.0567 1.86827 26.4792 2.37084C28.9018 2.87341 30.7456 4.04736 30.5731 4.98728Z" fill="#E8B438"/>
<g style="mix-blend-mode:multiply">
<path d="M22.0523 3.31844C22.2248 2.37084 24.3522 2.01022 26.7748 2.51279C27.5319 2.66473 28.2698 2.90019 28.975 3.21485C28.1837 2.82538 27.3448 2.54161 26.4796 2.37084C24.0417 1.86827 21.9296 2.22889 21.7572 3.17649C21.6383 3.80566 22.4088 4.53458 23.6507 5.0947C22.5851 4.5576 21.945 3.8939 22.0523 3.31844Z" fill="#F5ECD6"/>
</g>
<g style="mix-blend-mode:multiply">
<g style="mix-blend-mode:multiply">
<path d="M26.6098 4.94883L26.5676 5.18669L25.9045 5.04858L25.9466 4.8184C25.4776 4.71603 25.0203 4.56562 24.582 4.36953L24.9998 4.12784C25.3972 4.31506 25.8154 4.45415 26.2456 4.54217C26.6979 4.63425 26.8819 4.62274 26.8973 4.54217C26.9394 4.30048 24.7124 4.02426 24.8159 3.46414C24.858 3.23012 25.3295 3.11886 26.2303 3.26081L26.2763 3.02295L26.9356 3.16106L26.8934 3.39125C27.2664 3.48193 27.6306 3.60517 27.9821 3.75954L27.5987 4.00507C27.2624 3.85682 26.9118 3.74369 26.5523 3.66747C26.0923 3.57156 25.916 3.59841 25.9045 3.66747C25.8623 3.89765 28.0817 4.17771 27.9821 4.73016C27.9361 4.96418 27.4799 5.07544 26.6098 4.94883Z" fill="#F5ECD6"/>
</g>
</g>
<path d="M26.4184 4.87615L26.3762 5.11401L25.7131 4.98741L25.7552 4.76106C25.2859 4.65813 24.8285 4.5064 24.3906 4.30836L24.8084 4.0705C25.2108 4.25155 25.6327 4.38543 26.0657 4.46949C26.518 4.56156 26.702 4.55005 26.7174 4.46949C26.7595 4.23163 24.5325 3.95157 24.6359 3.39145C24.6781 3.15743 25.1496 3.04618 26.0504 3.18812L26.0964 2.9541L26.7557 3.08838L26.7135 3.3224C27.0892 3.40724 27.4562 3.52668 27.8098 3.67919L27.4265 3.92472C27.09 3.77702 26.7394 3.66391 26.38 3.58711C25.9201 3.49504 25.7437 3.51806 25.7322 3.58711C25.6901 3.8173 27.9095 4.09736 27.8098 4.6498C27.7447 4.89149 27.2885 4.98741 26.4184 4.87615Z" fill="#EFC24E"/>
<g style="mix-blend-mode:screen" opacity="0.2">
<path d="M22.5771 5.07174C22.8263 5.20601 23.0946 5.33261 23.3821 5.45538L30.1132 3.30698C29.8651 3.16463 29.6092 3.03654 29.3465 2.92334L22.5771 5.07174Z" fill="#EFD489"/>
</g>
<g style="mix-blend-mode:screen" opacity="0.2">
<path d="M23.7656 5.60131C24.3196 5.80924 24.8869 5.97971 25.4637 6.11156L31.2672 4.2624C31.0215 3.9631 30.7305 3.7042 30.4047 3.49512L23.7656 5.60131Z" fill="#EFD489"/>
</g>
</g>
</g>
<defs>
<clipPath id="clip0">
<rect width="75" height="94" fill="white"/>
</clipPath>
</defs>
</svg>
